<?xml version="1.0" encoding="utf-8"?>
<!-- Generator: Adobe Illustrator 27.5.0, SVG Export Plug-In . SVG Version: 6.00 Build 0)  -->
<svg version="1.1" id="Layer_1" xmlns="http://www.w3.org/2000/svg" xmlns:xlink="http://www.w3.org/1999/xlink" x="0px" y="0px"
	 viewBox="-14352.782 309.343 1440 1170.207" style="enable-background:new -14352.782 309.343 1440 1170.207;"
	 xml:space="preserve">
<rect x="-14352.782" y="309.343" style="fill:#FFFFFF;" width="1440" height="1170.207"/>
<g>
	<g>
		<path style="fill:#141515;" d="M-13188.448,1076.026h-848.049c-13.941,0-25.289-11.338-25.289-25.27v-24.268
			c0-0.693,0.567-1.251,1.252-1.251h896.365c0.683,0,1.251,0.558,1.251,1.251v24.268
			C-13162.918,1064.688-13174.366,1076.026-13188.448,1076.026z M-14059.28,1027.738v23.019c0,12.554,10.215,22.768,22.783,22.768
			h848.049c12.699,0,23.023-10.214,23.023-22.768v-23.019H-14059.28z"/>
	</g>
	<g>
		<path style="fill:#141515;" d="M-13482.313,969.696h-253.81c-12.56,0-22.784-10.208-22.784-22.76V760.822
			c0-12.551,10.225-22.762,22.784-22.762h253.81c12.56,0,22.782,10.21,22.782,22.762v186.114
			C-13459.531,959.488-13469.754,969.696-13482.313,969.696z M-13736.123,740.558c-10.989,0-20.278,9.279-20.278,20.264v186.114
			c0,10.984,9.289,20.266,20.278,20.266h253.81c10.989,0,20.279-9.281,20.279-20.266V760.822c0-10.984-9.29-20.264-20.279-20.264
			H-13736.123z"/>
	</g>
	<g>
		<path style="fill:#141515;" d="M-13463.042,922.424h-290.354c-0.688,0-1.252-0.559-1.252-1.247c0-0.695,0.563-1.249,1.252-1.249
			h290.354c0.686,0,1.254,0.554,1.254,1.249C-13461.788,921.865-13462.356,922.424-13463.042,922.424z"/>
	</g>
	<g>
		<path style="fill:#141515;" d="M-13611.473,954.939c-5.792,0-10.515-4.706-10.515-10.503c0-5.692,4.816-10.499,10.515-10.499
			c5.931,0,10.766,4.707,10.766,10.499C-13600.707,950.327-13605.438,954.939-13611.473,954.939z M-13611.473,936.437
			c-4.343,0-8.01,3.661-8.01,7.999c0,4.416,3.59,8.008,8.01,8.008c4.636,0,8.258-3.514,8.258-8.008
			C-13603.215,940.098-13606.991,936.437-13611.473,936.437z"/>
	</g>
	<g>
		<path style="fill:#141515;" d="M-13671.296,1027.488c-0.474,0-0.918-0.263-1.135-0.717c-0.289-0.628-0.023-1.369,0.602-1.666
			c21.073-9.9,45.127-34.884,47.351-56.277c0.078-0.687,0.661-1.211,1.377-1.118c0.683,0.074,1.182,0.687,1.114,1.375
			c-2.308,22.237-27.084,48.093-48.774,58.285C-13670.937,1027.452-13671.115,1027.488-13671.296,1027.488z"/>
	</g>
	<g>
		<path style="fill:#141515;" d="M-13548.644,1027.738h-128.413c-0.688,0-1.253-0.559-1.253-1.249c0-0.693,0.564-1.251,1.253-1.251
			h128.413c0.685,0,1.253,0.558,1.253,1.251C-13547.391,1027.179-13547.959,1027.738-13548.644,1027.738z"/>
	</g>
	<g>
		<path style="fill:#141515;" d="M-13555.151,1027.488c-0.178,0-0.358-0.036-0.532-0.118c-21.906-10.296-46.73-36.179-48.775-58.296
			c-0.059-0.688,0.438-1.297,1.133-1.364c0.635-0.109,1.286,0.444,1.358,1.13c1.964,21.274,26.068,46.265,47.35,56.266
			c0.627,0.297,0.892,1.038,0.601,1.666C-13554.231,1027.225-13554.677,1027.488-13555.151,1027.488z"/>
	</g>
	<g>
		<path style="fill:#141515;" d="M-13577.676,1012.232h-68.59c-0.687,0-1.253-0.555-1.253-1.248c0-0.689,0.566-1.249,1.253-1.249
			h68.59c0.686,0,1.257,0.56,1.257,1.249C-13576.419,1011.678-13576.99,1012.232-13577.676,1012.232z"/>
	</g>
	<g>
		<path style="fill:#141515;" d="M-14008.719,1027.986c-22.491,0-40.792-18.288-40.792-40.772c0-22.48,18.301-40.771,40.792-40.771
			c22.499,0,40.812,18.29,40.812,40.771C-13967.907,1009.698-13986.22,1027.986-14008.719,1027.986z M-14008.719,948.941
			c-21.108,0-38.284,17.168-38.284,38.273s17.176,38.274,38.284,38.274c21.128,0,38.303-17.17,38.303-38.274
			S-13987.591,948.941-14008.719,948.941z"/>
	</g>
	<g>
		<path style="fill:#141515;" d="M-14009.218,992.462c-0.223,0-0.443-0.059-0.652-0.179l-19.775-12.001
			c-0.586-0.357-0.773-1.129-0.419-1.715c0.366-0.597,1.131-0.779,1.722-0.421l19.015,11.537l24.603-20.445
			c0.523-0.438,1.313-0.37,1.762,0.165c0.437,0.53,0.369,1.316-0.166,1.759l-25.287,21.016
			C-14008.651,992.369-14008.934,992.462-14009.218,992.462z"/>
	</g>
	<g>
		<path style="fill:#141515;" d="M-13377.677,1027.738c-0.404,0-0.803-0.193-1.041-0.554c-0.387-0.572-0.23-1.348,0.346-1.733
			l19.348-12.977l14.918-68.546c1.253-6.296,4.559-8.694,7.067-8.274c2.444,0.414,4.692,3.511,3.648,10.956l-2.75,22.497
			c-0.085,0.688-0.712,1.181-1.396,1.092c-0.689-0.082-1.17-0.709-1.092-1.392l2.754-22.515c0.787-5.631-0.558-8-1.587-8.175
			c-1.063-0.215-3.304,1.867-4.198,6.317l-15.033,69.065c-0.068,0.316-0.256,0.59-0.521,0.772l-19.773,13.255
			C-13377.2,1027.668-13377.438,1027.738-13377.677,1027.738z"/>
	</g>
	<g>
		<path style="fill:#141515;" d="M-13356.903,1027.738c-0.69,0-1.256-0.559-1.256-1.249c0-0.693,0.565-1.251,1.256-1.251
			c12.608,0,18.025-8.508,20.332-15.645c1.203-4.108,1.951-8.469,2.201-12.938c0.225-5.99-0.412-12.201-1.71-16.595
			c-1.34-4.514-2.731-5.203-2.809-5.248c-0.025,0.007-2.602,0.993-3.509,16.477c-0.036,0.662-0.583,1.172-1.244,1.172
			c-0.026,0-0.054,0-0.068,0c-0.696-0.037-1.221-0.629-1.179-1.318c1.064-18.274,4.562-18.68,5.71-18.816
			c2.309-0.139,4.063,2.194,5.504,7.03c1.363,4.639,2.043,11.148,1.802,17.416c-0.269,4.679-1.04,9.231-2.302,13.559
			C-13336.757,1018.29-13342.791,1027.738-13356.903,1027.738z"/>
	</g>
	<g>
		<path style="fill:#141515;" d="M-13287.319,1027.738c-0.232,0-0.467-0.063-0.673-0.191l-21.022-13.253
			c-0.282-0.181-0.482-0.467-0.548-0.799l-14.775-69.042c-0.996-4.43-3.001-6.351-4.171-6.351c-0.052,0-0.112,0.008-0.162,0.019
			c-1.055,0.177-2.393,2.504-1.71,8.17l2.998,22.498c0.093,0.686-0.384,1.317-1.074,1.408c-0.702,0.101-1.313-0.396-1.398-1.076
			l-3.006-22.515c-0.9-7.449,1.354-10.54,3.77-10.954c2.986-0.484,5.984,2.871,7.192,8.264l14.672,68.542l20.576,12.967
			c0.584,0.37,0.756,1.142,0.386,1.729C-13286.496,1027.531-13286.909,1027.738-13287.319,1027.738z"/>
	</g>
	<g>
		<path style="fill:#141515;" d="M-13309.1,1027.738c-14.113,0-20.138-9.448-22.713-17.374c-1.417-4.025-2.283-8.6-2.558-13.571
			c-0.326-8.332,1.319-14.965,2.041-17.435c1.256-4.612,2.979-7.047,4.996-7.047c0.095,0,0.18,0.006,0.269,0.015
			c1.148,0.121,4.633,0.481,5.698,18.817c0.042,0.689-0.479,1.281-1.177,1.318c-0.014,0-0.043,0-0.067,0
			c-0.661,0-1.212-0.51-1.245-1.172c-0.912-15.529-3.443-16.47-3.469-16.477c-0.229,0.026-1.46,1.033-2.591,5.225
			c-1.445,4.914-2.173,11.125-1.958,16.641c0.259,4.709,1.082,9.052,2.43,12.887c2.325,7.165,7.735,15.673,20.344,15.673
			c0.687,0,1.254,0.558,1.254,1.251C-13307.846,1027.179-13308.413,1027.738-13309.1,1027.738z"/>
	</g>
	<g>
		<path style="fill:#141515;" d="M-13876.794,1027.488h-55.823c-5.151,0-9.513-4.352-9.513-9.507v-43.523
			c0-0.691,0.567-1.251,1.252-1.251h72.341c0.688,0,1.253,0.56,1.253,1.251v34.268c0,0.692-0.565,1.251-1.253,1.251
			c-0.685,0-1.253-0.559-1.253-1.251v-33.018h-69.834v42.273c0,3.798,3.211,7.01,7.007,7.01h55.823c0.686,0,1.252,0.556,1.252,1.246
			C-13875.542,1026.93-13876.108,1027.488-13876.794,1027.488z"/>
	</g>
	<g>
		<path style="fill:#141515;" d="M-13868.537,989.716h-71.843c-0.686,0-1.25-0.558-1.25-1.247s0.564-1.249,1.25-1.249h71.843
			c0.688,0,1.253,0.56,1.253,1.249S-13867.85,989.716-13868.537,989.716z"/>
	</g>
	<g>
		<path style="fill:#141515;" d="M-13940.129,989.22c-0.37,0-0.731-0.16-0.979-0.475c-0.429-0.538-0.343-1.326,0.198-1.754
			l17.021-13.509c0.542-0.429,1.33-0.343,1.761,0.198c0.429,0.543,0.343,1.328-0.199,1.756l-17.023,13.513
			C-13939.581,989.135-13939.854,989.22-13940.129,989.22z"/>
	</g>
	<g>
		<path style="fill:#141515;" d="M-13922.36,989.22c-0.37,0-0.73-0.16-0.978-0.475c-0.429-0.538-0.343-1.326,0.198-1.754
			l17.03-13.509c0.542-0.429,1.329-0.343,1.759,0.198c0.43,0.543,0.345,1.328-0.197,1.756l-17.032,13.513
			C-13921.811,989.135-13922.084,989.22-13922.36,989.22z"/>
	</g>
	<g>
		<path style="fill:#141515;" d="M-13904.581,989.22c-0.372,0-0.731-0.16-0.979-0.475c-0.429-0.538-0.343-1.326,0.2-1.754
			l17.02-13.509c0.539-0.429,1.32-0.343,1.76,0.198c0.431,0.543,0.346,1.328-0.196,1.756l-17.023,13.513
			C-13904.033,989.135-13904.307,989.22-13904.581,989.22z"/>
	</g>
	<g>
		<path style="fill:#141515;" d="M-13886.563,989.22c-0.361,0-0.729-0.16-0.971-0.462c-0.438-0.543-0.354-1.329,0.188-1.76
			l16.772-13.515c0.533-0.43,1.323-0.355,1.754,0.19c0.439,0.541,0.35,1.323-0.188,1.76l-16.777,13.512
			C-13886.013,989.128-13886.29,989.22-13886.563,989.22z"/>
	</g>
	<g>
		<path style="fill:#141515;" d="M-13941.666,976.296l-2.156-6.442c-1.68-4.795,1.073-10.337,6.034-12.087l52.832-18.013
			c5.26-1.548,10.71,1.413,12.348,6.286l1.857,6.2L-13941.666,976.296z M-13882.151,941.843c-0.703,0-1.392,0.098-2.049,0.296
			l-52.77,17.992c-3.667,1.294-5.727,5.373-4.49,8.907l1.374,4.083l66.243-22.475l-1.148-3.849
			C-13875.962,943.899-13878.913,941.843-13882.151,941.843z"/>
	</g>
	<g>
		<path style="fill:#141515;" d="M-13939.632,973.708c-0.24,0-0.481-0.064-0.688-0.204c-0.583-0.383-0.735-1.162-0.351-1.737
			l10.763-16.26c0.38-0.583,1.169-0.73,1.728-0.352c0.584,0.384,0.736,1.159,0.353,1.734l-10.765,16.26
			C-13938.835,973.513-13939.229,973.708-13939.632,973.708z"/>
	</g>
	<g>
		<path style="fill:#141515;" d="M-13923.613,969.955c-0.232,0-0.472-0.063-0.681-0.196c-0.581-0.374-0.743-1.149-0.366-1.73
			l11.767-18.269c0.364-0.573,1.154-0.741,1.728-0.374c0.581,0.374,0.747,1.153,0.37,1.733l-11.771,18.266
			C-13922.797,969.756-13923.202,969.955-13923.613,969.955z"/>
	</g>
	<g>
		<path style="fill:#141515;" d="M-13906.583,964.455c-0.232,0-0.473-0.065-0.688-0.206c-0.574-0.375-0.738-1.153-0.359-1.726
			l12.26-18.767c0.386-0.576,1.15-0.732,1.731-0.363c0.575,0.377,0.739,1.154,0.36,1.729l-12.258,18.764
			C-13905.774,964.257-13906.179,964.455-13906.583,964.455z"/>
	</g>
	<g>
		<path style="fill:#141515;" d="M-13890.313,958.694c-0.234,0-0.474-0.065-0.689-0.2c-0.572-0.381-0.738-1.154-0.357-1.733
			l10.755-16.509c0.377-0.571,1.149-0.73,1.731-0.361c0.579,0.378,0.74,1.149,0.361,1.729l-10.758,16.509
			C-13889.509,958.496-13889.913,958.694-13890.313,958.694z"/>
	</g>
	<g>
		<path style="fill:#141515;" d="M-13874.544,1002.972h-59.826c-0.686,0-1.252-0.558-1.252-1.249s0.566-1.251,1.252-1.251h59.826
			c0.686,0,1.252,0.56,1.252,1.251S-13873.858,1002.972-13874.544,1002.972z"/>
	</g>
	<g>
		<path style="fill:#141515;" d="M-13874.544,1013.984h-59.826c-0.686,0-1.252-0.559-1.252-1.248c0-0.692,0.566-1.248,1.252-1.248
			h59.826c0.686,0,1.252,0.556,1.252,1.248C-13873.292,1013.426-13873.858,1013.984-13874.544,1013.984z"/>
	</g>
	<g>
		<path style="fill:#141515;" d="M-13837.151,1027.947c-5.016,0-9.84-2.345-12.896-6.745c-1.655-2.758-2.474-5.752-2.474-8.973
			c0-0.691,0.566-1.248,1.257-1.248c0.685,0,1.253,0.557,1.253,1.248c0,2.801,0.679,5.288,2.066,7.612
			c4.173,6.012,12.422,7.403,18.75,3.115c6.327-4.453,8.198-12.998,4.17-19.038c-3.132-4.924-9.398-6.876-15.314-4.772
			c-0.668,0.232-1.363-0.112-1.594-0.756c-0.234-0.646,0.102-1.363,0.756-1.598c6.959-2.501,14.489-0.146,18.247,5.761
			c4.766,7.137,2.595,17.221-4.841,22.459C-13830.688,1026.994-13833.96,1027.947-13837.151,1027.947z"/>
	</g>
	<g>
		<path style="fill:#141515;" d="M-13782.179,1011.602c-7.047,0-13.264-4.275-15.229-11.033
			c-2.196-8.289,2.894-17.157,11.357-19.802c3.493-1.074,6.808-1.058,9.802,0.019c0.646,0.232,0.98,0.951,0.75,1.601
			c-0.234,0.641-0.919,0.987-1.607,0.752c-2.48-0.912-5.246-0.897-8.207,0.021c-7.191,2.243-11.535,9.757-9.684,16.738
			c2.019,6.937,9.496,10.744,16.982,8.629c6.061-2.012,10.334-7.917,10.104-14.012c-0.026-0.691,0.516-1.27,1.21-1.295
			c0.007,0,0.025,0,0.044,0c0.668,0,1.225,0.528,1.252,1.201c0.264,7.185-4.732,14.121-11.881,16.499
			C-13778.935,1011.381-13780.583,1011.602-13782.179,1011.602z"/>
	</g>
	<g>
		<path style="fill:#141515;" d="M-13822.233,1007.727c-0.688,0-1.246-0.553-1.254-1.244l-0.246-60.288
			c0-0.629,0.461-1.158,1.079-1.248l55.823-7.749c0.379-0.039,0.721,0.06,0.996,0.297c0.267,0.239,0.43,0.582,0.43,0.943v57.036
			c0,0.691-0.568,1.247-1.252,1.247c-0.689,0-1.254-0.557-1.254-1.247v-55.598l-53.319,7.403l0.252,59.194
			c0,0.692-0.56,1.253-1.247,1.253C-13822.233,1007.727-13822.233,1007.727-13822.233,1007.727z"/>
	</g>
	<g>
		
			<rect x="-13822.751" y="958.071" transform="matrix(0.9906 -0.1367 0.1367 0.9906 -260.4995 -1876.0597)" style="fill:#141515;" width="56.36" height="2.506"/>
	</g>
	<g>
		<path style="fill:#141515;" d="M-13426.959,1027.514c-3.076,0-6.173-0.352-9.248-1.064c-10.464-2.429-19.307-8.75-24.894-17.815
			c-11.77-18.921-6.087-43.936,12.662-55.754c18.797-11.826,43.839-6.059,55.798,12.903c4.421,7.28,6.472,15.233,5.939,23.02
			c0.009,2.168-0.232,4.255-0.773,6.69c-0.146,0.676-0.821,1.076-1.485,0.952c-0.678-0.149-1.107-0.818-0.95-1.492
			c0.496-2.249,0.711-4.173,0.711-6.235c0.499-7.354-1.435-14.803-5.571-21.619c-11.21-17.779-34.705-23.219-52.33-12.097
			c-17.589,11.081-22.92,34.552-11.871,52.315c5.235,8.49,13.527,14.419,23.331,16.693c9.96,2.302,20.15,0.58,28.759-4.834
			c3.176-1.811,5.846-4.102,8.465-7.246c0.444-0.53,1.232-0.599,1.76-0.159c0.529,0.445,0.599,1.235,0.162,1.766
			c-2.817,3.374-5.709,5.853-9.102,7.787C-13412.078,1025.406-13419.45,1027.514-13426.959,1027.514z"/>
	</g>
	<g>
		<path style="fill:#141515;" d="M-13406.471,1020.729c-0.42,0-0.826-0.207-1.063-0.589c-4.973-8.054-15.118-24.207-26.004-41.556
			l-15.038-23.976c-0.37-0.589-0.198-1.357,0.396-1.729c0.575-0.352,1.354-0.192,1.715,0.396l15.047,23.983
			c10.895,17.347,21.04,33.511,26.014,41.565c0.358,0.588,0.18,1.36-0.406,1.723
			C-13406.014,1020.673-13406.247,1020.729-13406.471,1020.729z"/>
	</g>
	<g>
		<path style="fill:#141515;" d="M-13449.804,990.302c-5.571,0-11.184-1.138-16.483-3.443l0.995-2.29
			c11.599,5.042,24.824,4.145,35.387-2.413c10.817-6.814,17.426-18.495,17.683-31.233l2.507,0.048
			c-0.275,13.589-7.331,26.034-18.857,33.307C-13435.005,988.27-13442.372,990.302-13449.804,990.302z"/>
	</g>
	<g>
		<path style="fill:#141515;" d="M-13441.761,1022.54l-2.509-0.104c0.543-13.26,7.686-25.422,19.117-32.53
			c11.95-7.114,26.321-7.879,38.501-2.068l-1.076,2.259c-11.404-5.447-24.915-4.725-36.119,1.943
			C-13434.559,998.698-13441.263,1010.103-13441.761,1022.54z"/>
	</g>
	<g>
		<path style="fill:#141515;" d="M-13186.198,1027.488h-85.104c-2.806,0-5.003-2.413-5.003-5.498v-56.288
			c0-2.931,2.341-5.498,5.003-5.498h85.104c2.669,0,5.015,2.567,5.015,5.498v41.78c0,0.691-0.567,1.251-1.254,1.251
			c-0.688,0-1.254-0.56-1.254-1.251v-41.78c0-1.571-1.194-3-2.507-3h-85.104c-1.305,0-2.498,1.429-2.498,3v56.288
			c0,1.876,1.271,3.001,2.498,3.001h85.104c1.236,0,2.507-1.125,2.507-3.001c0-0.692,0.566-1.251,1.254-1.251
			c0.687,0,1.254,0.559,1.254,1.251C-13181.184,1025.075-13183.392,1027.488-13186.198,1027.488z"/>
	</g>
	<g>
		<path style="fill:#141515;" d="M-13228.751,998.473c-0.264,0-0.541-0.084-0.765-0.262l-44.554-34.527
			c-0.544-0.418-0.643-1.204-0.223-1.755c0.43-0.55,1.211-0.653,1.753-0.22l43.797,33.935l44.285-33.938
			c0.567-0.417,1.341-0.318,1.761,0.232c0.422,0.548,0.311,1.329-0.23,1.751l-45.059,34.523
			C-13228.218,998.389-13228.482,998.473-13228.751,998.473z"/>
	</g>
	<g>
		<path style="fill:#141515;" d="M-13183.941,1026.741c-0.271,0-0.559-0.091-0.788-0.281l-39.299-32.018
			c-0.532-0.437-0.619-1.223-0.181-1.759c0.438-0.542,1.219-0.622,1.761-0.182l39.298,32.021c0.53,0.437,0.616,1.225,0.179,1.76
			C-13183.218,1026.589-13183.579,1026.741-13183.941,1026.741z M-13273.054,1026.49c-0.361,0-0.72-0.153-0.97-0.458
			c-0.438-0.535-0.353-1.321,0.18-1.759l39.3-32.019c0.532-0.441,1.312-0.361,1.76,0.179c0.438,0.536,0.353,1.322-0.18,1.76
			l-39.302,32.021C-13272.494,1026.403-13272.778,1026.49-13273.054,1026.49z"/>
	</g>
	<g>
		<path style="fill:#141515;" d="M-14027.981,1075.764c-0.345,0-0.679-0.137-0.928-0.406l-19.776-21.761
			c-0.465-0.511-0.429-1.301,0.086-1.771c0.513-0.457,1.294-0.427,1.767,0.088l19.779,21.763c0.463,0.511,0.429,1.299-0.088,1.767
			C-14027.381,1075.658-14027.68,1075.764-14027.981,1075.764z"/>
	</g>
	<g>
		<path style="fill:#141515;" d="M-13818.729,838.368c-13.939,0-25.283-11.443-25.283-25.513c0-13.934,11.344-25.265,25.283-25.265
			c14.076,0,25.537,11.331,25.537,25.265C-13793.192,826.924-13804.653,838.368-13818.729,838.368z M-13818.729,790.089
			c-12.561,0-22.774,10.217-22.774,22.767c0,12.687,10.214,23.014,22.774,23.014c12.703,0,23.029-10.327,23.029-23.014
			C-13795.7,800.305-13806.026,790.089-13818.729,790.089z"/>
	</g>
	<g>
		<path style="fill:#141515;" d="M-13842.888,829.221c-6.223,0-10.917-1.146-13.064-3.517c-1.031-1.283-1.382-2.763-1.081-4.351
			c0.729-3.889,5.493-8.537,13.401-13.088l1.25,2.172c-7.056,4.057-11.614,8.311-12.197,11.378c-0.162,0.873,0.01,1.615,0.531,2.266
			c3.854,4.272,22.08,3.748,42.906-3.897c17.45-6.185,26.549-13.538,27.617-17.752c0.246-0.992,0.057-1.784-0.586-2.498
			c-2.035-2.246-8.205-3.081-16.987-2.347l-0.206-2.489c9.938-0.879,16.371,0.202,19.05,3.155c1.208,1.332,1.601,2.99,1.149,4.789
			c-1.548,6.106-12.998,13.759-29.189,19.5C-13822.249,826.924-13834.089,829.221-13842.888,829.221z"/>
	</g>
	<g>
		<path style="fill:#141515;" d="M-13339.813,835.978c-6.757,0-16.08-0.173-24.877-0.362c-0.697-0.013-1.236-0.583-1.229-1.274
			c0.018-0.682,0.576-1.224,1.255-1.224c0.009,0,0.015,0,0.023,0c11.769,0.249,26.021,0.489,31.711,0.253
			c0.774-0.088,1.263,0.506,1.307,1.193c0.022,0.691-0.51,1.275-1.202,1.306
			C-13334.536,835.943-13336.937,835.978-13339.813,835.978z"/>
	</g>
	<g>
		<path style="fill:#141515;" d="M-13387.944,834.616c-1.436,0-2.715-0.077-3.829-0.15c-0.825-0.052-1.546-0.099-2.182-0.099
			c-0.688,0-1.253-0.558-1.253-1.249c0-0.69,0.564-1.249,1.253-1.249c0.681,0,1.459,0.047,2.335,0.103
			c1.074,0.064,2.299,0.146,3.676,0.146c0.684,0,1.252,0.559,1.252,1.249C-13386.692,834.057-13387.261,834.616-13387.944,834.616z"
			/>
	</g>
	<g>
		<path style="fill:#141515;" d="M-13410.97,905.164c-6.077,0-11.021-4.938-11.021-11.007c0-5.83,5.048-10.756,11.021-10.756
			c5.93,0,10.766,4.826,10.766,10.756C-13400.204,900.328-13404.935,905.164-13410.97,905.164z M-13410.97,885.899
			c-4.619,0-8.515,3.781-8.515,8.257c0,4.693,3.818,8.507,8.515,8.507c4.635,0,8.26-3.738,8.26-8.507
			C-13402.71,889.6-13406.412,885.899-13410.97,885.899z"/>
	</g>
	<g>
		<path style="fill:#141515;" d="M-13857.714,891.51c-6.574,0-15.667-0.165-24.866-0.359c-0.687-0.011-1.236-0.583-1.228-1.274
			c0.015-0.691,0.541-1.314,1.277-1.222c13.201,0.273,26.176,0.493,31.709,0.248c0.688,0.006,1.262,0.506,1.307,1.192
			c0.025,0.695-0.506,1.278-1.202,1.304C-13852.421,891.478-13854.828,891.51-13857.714,891.51z"/>
	</g>
	<g>
		<path style="fill:#141515;" d="M-13905.836,890.15c-1.435,0-2.714-0.076-3.829-0.148c-0.822-0.052-1.546-0.098-2.182-0.098
			c-0.683,0-1.253-0.558-1.253-1.249s0.57-1.249,1.253-1.249c0.681,0,1.462,0.044,2.339,0.102c1.07,0.064,2.298,0.147,3.672,0.147
			c0.69,0,1.255,0.559,1.255,1.249C-13904.581,889.596-13905.146,890.15-13905.836,890.15z"/>
	</g>
	<g>
		<path style="fill:#141515;" d="M-14010.712,1075.764c-0.341,0-0.677-0.137-0.925-0.406l-19.778-21.761
			c-0.461-0.511-0.432-1.301,0.085-1.771c0.507-0.457,1.296-0.427,1.77,0.088l19.778,21.763c0.463,0.511,0.429,1.299-0.088,1.767
			C-14010.107,1075.658-14010.411,1075.764-14010.712,1075.764z"/>
	</g>
	<g>
		<path style="fill:#141515;" d="M-13993.438,1075.764c-0.344,0-0.68-0.137-0.926-0.406l-19.78-21.761
			c-0.463-0.511-0.43-1.301,0.086-1.771c0.507-0.457,1.297-0.427,1.769,0.088l19.778,21.763c0.463,0.511,0.429,1.299-0.086,1.767
			C-13992.839,1075.658-13993.138,1075.764-13993.438,1075.764z"/>
	</g>
	<g>
		<path style="fill:#141515;" d="M-13976.168,1075.764c-0.333,0-0.669-0.13-0.919-0.402l-20.035-21.762
			c-0.471-0.506-0.437-1.297,0.069-1.765c0.517-0.467,1.298-0.431,1.767,0.074l20.037,21.761c0.471,0.508,0.44,1.297-0.07,1.764
			C-13975.557,1075.658-13975.864,1075.764-13976.168,1075.764z"/>
	</g>
	<g>
		<path style="fill:#141515;" d="M-13958.895,1075.764c-0.336,0-0.67-0.13-0.919-0.402l-20.035-21.762
			c-0.474-0.506-0.438-1.297,0.067-1.765c0.517-0.467,1.296-0.431,1.769,0.074l20.035,21.761c0.473,0.508,0.438,1.297-0.068,1.764
			C-13958.285,1075.658-13958.597,1075.764-13958.895,1075.764z"/>
	</g>
	<g>
		<path style="fill:#141515;" d="M-13941.882,1075.764c-0.344,0-0.68-0.137-0.926-0.406l-19.776-21.761
			c-0.467-0.511-0.433-1.301,0.083-1.771c0.516-0.457,1.296-0.427,1.768,0.088l19.779,21.763c0.464,0.511,0.428,1.299-0.086,1.767
			C-13941.28,1075.658-13941.581,1075.764-13941.882,1075.764z"/>
	</g>
	<g>
		<path style="fill:#141515;" d="M-13924.608,1075.764c-0.344,0-0.68-0.137-0.928-0.406l-19.78-21.761
			c-0.461-0.511-0.429-1.301,0.086-1.771c0.519-0.457,1.298-0.427,1.771,0.088l19.779,21.763c0.464,0.511,0.428,1.299-0.086,1.767
			C-13924.009,1075.658-13924.308,1075.764-13924.608,1075.764z"/>
	</g>
	<g>
		<path style="fill:#141515;" d="M-13907.339,1075.764c-0.343,0-0.677-0.137-0.926-0.406l-19.778-21.761
			c-0.465-0.511-0.429-1.301,0.086-1.771c0.513-0.457,1.298-0.427,1.767,0.088l19.779,21.763c0.463,0.511,0.429,1.299-0.086,1.767
			C-13906.738,1075.658-13907.036,1075.764-13907.339,1075.764z"/>
	</g>
	<g>
		<path style="fill:#141515;" d="M-13890.065,1075.764c-0.336,0-0.681-0.13-0.92-0.402l-20.02-21.762
			c-0.471-0.506-0.437-1.301,0.069-1.765c0.506-0.467,1.315-0.431,1.767,0.074l20.021,21.761c0.474,0.508,0.438,1.301-0.068,1.764
			C-13889.456,1075.658-13889.767,1075.764-13890.065,1075.764z"/>
	</g>
	<g>
		<path style="fill:#141515;" d="M-13873.046,1075.764c-0.341,0-0.675-0.137-0.926-0.406l-19.77-21.761
			c-0.464-0.511-0.428-1.301,0.086-1.771c0.506-0.457,1.298-0.427,1.77,0.088l19.77,21.763c0.463,0.511,0.431,1.299-0.088,1.767
			C-13872.441,1075.658-13872.741,1075.764-13873.046,1075.764z"/>
	</g>
	<g>
		<path style="fill:#141515;" d="M-13855.772,1075.764c-0.344,0-0.679-0.137-0.925-0.406l-19.771-21.761
			c-0.464-0.511-0.43-1.301,0.086-1.771c0.506-0.457,1.296-0.427,1.768,0.088l19.768,21.763c0.467,0.511,0.43,1.299-0.084,1.767
			C-13855.173,1075.658-13855.472,1075.764-13855.772,1075.764z"/>
	</g>
	<g>
		<path style="fill:#141515;" d="M-13838.499,1075.764c-0.344,0-0.681-0.137-0.931-0.406l-19.776-21.761
			c-0.463-0.511-0.43-1.301,0.084-1.771c0.511-0.457,1.299-0.427,1.771,0.088l19.778,21.763c0.461,0.511,0.43,1.299-0.084,1.767
			C-13837.899,1075.658-13838.2,1075.764-13838.499,1075.764z"/>
	</g>
	<g>
		<path style="fill:#141515;" d="M-13821.23,1075.764c-0.343,0-0.676-0.137-0.926-0.406l-19.776-21.761
			c-0.467-0.511-0.43-1.301,0.084-1.771c0.515-0.457,1.295-0.427,1.767,0.088l19.779,21.763c0.464,0.511,0.431,1.299-0.086,1.767
			C-13820.628,1075.658-13820.929,1075.764-13821.23,1075.764z"/>
	</g>
	<g>
		<path style="fill:#141515;" d="M-13803.957,1075.764c-0.336,0-0.67-0.13-0.919-0.402l-20.026-21.762
			c-0.474-0.506-0.438-1.297,0.067-1.765c0.516-0.467,1.296-0.431,1.768,0.074l20.029,21.761c0.473,0.508,0.438,1.297-0.068,1.764
			C-13803.348,1075.658-13803.657,1075.764-13803.957,1075.764z"/>
	</g>
	<g>
		<path style="fill:#141515;" d="M-13786.936,1075.764c-0.343,0-0.679-0.137-0.927-0.406l-19.777-21.761
			c-0.463-0.511-0.431-1.301,0.088-1.771c0.513-0.457,1.293-0.427,1.767,0.088l19.777,21.763c0.462,0.511,0.429,1.299-0.085,1.767
			C-13786.333,1075.658-13786.636,1075.764-13786.936,1075.764z"/>
	</g>
	<g>
		<path style="fill:#141515;" d="M-13769.662,1075.764c-0.345,0-0.681-0.137-0.927-0.406l-19.779-21.761
			c-0.465-0.511-0.429-1.301,0.084-1.771c0.508-0.457,1.299-0.427,1.77,0.088l19.778,21.763c0.464,0.511,0.429,1.299-0.086,1.767
			C-13769.063,1075.658-13769.363,1075.764-13769.662,1075.764z"/>
	</g>
	<g>
		<path style="fill:#141515;" d="M-13752.394,1075.764c-0.34,0-0.676-0.137-0.926-0.406l-19.779-21.761
			c-0.463-0.511-0.428-1.301,0.086-1.771c0.508-0.457,1.298-0.427,1.77,0.088l19.78,21.763c0.461,0.511,0.429,1.299-0.087,1.767
			C-13751.79,1075.658-13752.09,1075.764-13752.394,1075.764z"/>
	</g>
	<g>
		<path style="fill:#141515;" d="M-13735.12,1075.764c-0.336,0-0.666-0.13-0.918-0.402l-20.027-21.762
			c-0.475-0.506-0.438-1.297,0.068-1.765c0.518-0.467,1.305-0.431,1.768,0.074l20.025,21.761c0.476,0.508,0.438,1.297-0.067,1.764
			C-13734.511,1075.658-13734.822,1075.764-13735.12,1075.764z"/>
	</g>
	<g>
		<path style="fill:#141515;" d="M-13717.847,1075.764c-0.336,0-0.672-0.13-0.92-0.402l-20.025-21.762
			c-0.476-0.506-0.438-1.297,0.068-1.765c0.512-0.467,1.302-0.431,1.766,0.074l20.027,21.761c0.474,0.508,0.438,1.297-0.067,1.764
			C-13717.237,1075.658-13717.548,1075.764-13717.847,1075.764z"/>
	</g>
	<g>
		<path style="fill:#141515;" d="M-13700.833,1075.764c-0.344,0-0.68-0.137-0.929-0.406l-19.771-21.761
			c-0.461-0.511-0.429-1.301,0.089-1.771c0.516-0.457,1.303-0.427,1.768,0.088l19.77,21.763c0.465,0.511,0.43,1.299-0.086,1.767
			C-13700.233,1075.658-13700.534,1075.764-13700.833,1075.764z"/>
	</g>
	<g>
		<path style="fill:#141515;" d="M-13683.563,1075.764c-0.341,0-0.677-0.137-0.927-0.406l-19.779-21.761
			c-0.465-0.511-0.43-1.301,0.086-1.771c0.516-0.457,1.297-0.427,1.768,0.088l19.781,21.763c0.461,0.511,0.428,1.299-0.089,1.767
			C-13682.962,1075.658-13683.263,1075.764-13683.563,1075.764z"/>
	</g>
	<g>
		<path style="fill:#141515;" d="M-13666.291,1075.764c-0.345,0-0.677-0.137-0.929-0.406l-19.775-21.761
			c-0.465-0.511-0.43-1.301,0.086-1.771c0.513-0.457,1.293-0.427,1.768,0.088l19.776,21.763c0.466,0.511,0.433,1.299-0.084,1.767
			C-13665.69,1075.658-13665.991,1075.764-13666.291,1075.764z"/>
	</g>
	<g>
		<path style="fill:#141515;" d="M-13649.019,1075.764c-0.337,0-0.68-0.13-0.92-0.402l-20.02-21.762
			c-0.471-0.506-0.438-1.301,0.07-1.765c0.514-0.467,1.313-0.431,1.768,0.074l20.02,21.761c0.471,0.508,0.436,1.301-0.07,1.764
			C-13648.408,1075.658-13648.721,1075.764-13649.019,1075.764z"/>
	</g>
	<g>
		<path style="fill:#141515;" d="M-13631.746,1075.764c-0.335,0-0.681-0.13-0.919-0.402l-20.02-21.762
			c-0.473-0.506-0.438-1.301,0.068-1.765c0.515-0.467,1.313-0.431,1.768,0.074l20.02,21.761c0.472,0.508,0.438,1.301-0.068,1.764
			C-13631.141,1075.658-13631.447,1075.764-13631.746,1075.764z"/>
	</g>
	<g>
		<path style="fill:#141515;" d="M-13614.725,1075.764c-0.343,0-0.679-0.137-0.926-0.406l-19.772-21.761
			c-0.461-0.511-0.43-1.301,0.09-1.771c0.505-0.457,1.293-0.427,1.766,0.088l19.769,21.763c0.461,0.511,0.431,1.299-0.084,1.767
			C-13614.126,1075.658-13614.424,1075.764-13614.725,1075.764z"/>
	</g>
	<g>
		<path style="fill:#141515;" d="M-13597.454,1075.764c-0.342,0-0.676-0.137-0.928-0.406l-19.768-21.761
			c-0.467-0.511-0.429-1.301,0.084-1.771c0.517-0.457,1.306-0.427,1.767,0.088l19.773,21.763c0.461,0.511,0.429,1.299-0.09,1.767
			C-13596.853,1075.658-13597.154,1075.764-13597.454,1075.764z"/>
	</g>
	<g>
		<path style="fill:#141515;" d="M-13580.183,1075.764c-0.343,0-0.68-0.137-0.928-0.406l-19.774-21.761
			c-0.467-0.511-0.435-1.301,0.084-1.771c0.514-0.457,1.293-0.427,1.767,0.088l19.778,21.763c0.465,0.511,0.43,1.299-0.086,1.767
			C-13579.58,1075.658-13579.883,1075.764-13580.183,1075.764z"/>
	</g>
	<g>
		<path style="fill:#141515;" d="M-13562.911,1075.764c-0.336,0-0.668-0.13-0.917-0.402l-20.028-21.762
			c-0.472-0.506-0.437-1.297,0.069-1.765c0.506-0.467,1.294-0.431,1.768,0.074l20.028,21.761c0.473,0.508,0.438,1.297-0.069,1.764
			C-13562.304,1075.658-13562.61,1075.764-13562.911,1075.764z"/>
	</g>
	<g>
		<path style="fill:#141515;" d="M-13545.888,1075.764c-0.345,0-0.681-0.137-0.928-0.406l-19.778-21.761
			c-0.463-0.511-0.429-1.301,0.087-1.771c0.514-0.457,1.296-0.427,1.77,0.088l19.775,21.763c0.464,0.511,0.429,1.299-0.084,1.767
			C-13545.289,1075.658-13545.59,1075.764-13545.888,1075.764z"/>
	</g>
	<g>
		<path style="fill:#141515;" d="M-13528.614,1075.764c-0.345,0-0.681-0.137-0.932-0.406l-19.776-21.761
			c-0.465-0.511-0.427-1.301,0.086-1.771c0.506-0.457,1.299-0.427,1.768,0.088l19.78,21.763c0.463,0.511,0.429,1.299-0.086,1.767
			C-13528.016,1075.658-13528.316,1075.764-13528.614,1075.764z"/>
	</g>
	<g>
		<path style="fill:#141515;" d="M-13511.346,1075.764c-0.344,0-0.676-0.137-0.927-0.406l-19.777-21.761
			c-0.465-0.511-0.43-1.301,0.085-1.771c0.506-0.457,1.296-0.427,1.77,0.088l19.774,21.763c0.467,0.511,0.435,1.299-0.084,1.767
			C-13510.742,1075.658-13511.043,1075.764-13511.346,1075.764z"/>
	</g>
	<g>
		<path style="fill:#141515;" d="M-13494.072,1075.764c-0.346,0-0.68-0.137-0.927-0.406l-19.781-21.761
			c-0.461-0.511-0.429-1.301,0.089-1.771c0.506-0.457,1.296-0.427,1.768,0.088l19.776,21.763c0.467,0.511,0.429,1.299-0.084,1.767
			C-13493.474,1075.658-13493.772,1075.764-13494.072,1075.764z"/>
	</g>
	<g>
		<path style="fill:#141515;" d="M-13476.802,1075.764c-0.334,0-0.67-0.13-0.918-0.402l-20.028-21.762
			c-0.47-0.506-0.44-1.297,0.071-1.765c0.513-0.467,1.301-0.431,1.768,0.074l20.026,21.761c0.47,0.508,0.438,1.297-0.069,1.764
			C-13476.192,1075.658-13476.501,1075.764-13476.802,1075.764z"/>
	</g>
	<g>
		<path style="fill:#141515;" d="M-13459.779,1075.764c-0.343,0-0.677-0.137-0.926-0.406l-19.78-21.761
			c-0.463-0.511-0.43-1.301,0.086-1.771c0.517-0.457,1.306-0.427,1.771,0.088l19.777,21.763c0.464,0.511,0.429,1.299-0.086,1.767
			C-13459.179,1075.658-13459.479,1075.764-13459.779,1075.764z"/>
	</g>
	<g>
		<path style="fill:#141515;" d="M-13442.508,1075.764c-0.341,0-0.678-0.137-0.929-0.406l-19.775-21.761
			c-0.465-0.511-0.43-1.301,0.086-1.771c0.513-0.457,1.306-0.427,1.768,0.088l19.777,21.763c0.465,0.511,0.432,1.299-0.086,1.767
			C-13441.907,1075.658-13442.206,1075.764-13442.508,1075.764z"/>
	</g>
	<g>
		<path style="fill:#141515;" d="M-13425.245,1075.764c-0.342,0-0.678-0.137-0.926-0.406l-19.77-21.761
			c-0.465-0.511-0.431-1.301,0.086-1.771c0.513-0.457,1.295-0.427,1.77,0.088l19.768,21.763c0.464,0.511,0.431,1.299-0.086,1.767
			C-13424.644,1075.658-13424.944,1075.764-13425.245,1075.764z"/>
	</g>
	<g>
		<path style="fill:#141515;" d="M-13407.972,1075.764c-0.336,0-0.681-0.13-0.918-0.402l-20.021-21.762
			c-0.474-0.506-0.438-1.301,0.068-1.765c0.515-0.467,1.314-0.431,1.771,0.074l20.016,21.761c0.473,0.508,0.438,1.301-0.067,1.764
			C-13407.364,1075.658-13407.674,1075.764-13407.972,1075.764z"/>
	</g>
	<g>
		<path style="fill:#141515;" d="M-13390.703,1075.764c-0.331,0-0.676-0.13-0.917-0.402l-20.017-21.762
			c-0.473-0.506-0.441-1.301,0.068-1.765c0.515-0.467,1.312-0.431,1.767,0.074l20.019,21.761c0.472,0.508,0.439,1.301-0.07,1.764
			C-13390.091,1075.658-13390.4,1075.764-13390.703,1075.764z"/>
	</g>
	<g>
		<path style="fill:#141515;" d="M-13373.681,1075.764c-0.339,0-0.676-0.137-0.926-0.406l-19.769-21.761
			c-0.466-0.511-0.43-1.301,0.083-1.771c0.512-0.457,1.299-0.427,1.77,0.088l19.773,21.763c0.459,0.511,0.429,1.299-0.09,1.767
			C-13373.078,1075.658-13373.377,1075.764-13373.681,1075.764z"/>
	</g>
	<g>
		<path style="fill:#141515;" d="M-13356.407,1075.764c-0.345,0-0.677-0.137-0.927-0.406l-19.768-21.761
			c-0.467-0.511-0.43-1.301,0.084-1.771c0.515-0.457,1.306-0.427,1.767,0.088l19.77,21.763c0.465,0.511,0.429,1.299-0.085,1.767
			C-13355.807,1075.658-13356.108,1075.764-13356.407,1075.764z"/>
	</g>
	<g>
		<path style="fill:#141515;" d="M-13339.137,1075.764c-0.342,0-0.677-0.137-0.926-0.406l-19.771-21.761
			c-0.463-0.511-0.429-1.301,0.087-1.771c0.516-0.457,1.305-0.427,1.77,0.088l19.77,21.763c0.463,0.511,0.429,1.299-0.085,1.767
			C-13338.534,1075.658-13338.835,1075.764-13339.137,1075.764z"/>
	</g>
	<g>
		<path style="fill:#141515;" d="M-13321.863,1075.764c-0.336,0-0.67-0.13-0.923-0.402l-20.022-21.762
			c-0.474-0.506-0.44-1.297,0.068-1.765c0.514-0.467,1.295-0.431,1.769,0.074l20.026,21.761c0.473,0.508,0.438,1.297-0.067,1.764
			C-13321.256,1075.658-13321.563,1075.764-13321.863,1075.764z"/>
	</g>
	<g>
		<path style="fill:#141515;" d="M-13304.593,1075.764c-0.337,0-0.667-0.13-0.92-0.402l-20.025-21.762
			c-0.471-0.506-0.438-1.297,0.068-1.765c0.517-0.467,1.307-0.431,1.768,0.074l20.028,21.761c0.47,0.508,0.44,1.297-0.071,1.764
			C-13303.982,1075.658-13304.292,1075.764-13304.593,1075.764z"/>
	</g>
	<g>
		<path style="fill:#141515;" d="M-13287.572,1075.764c-0.343,0-0.675-0.137-0.925-0.406l-19.777-21.761
			c-0.466-0.511-0.429-1.301,0.084-1.771c0.506-0.457,1.296-0.427,1.769,0.088l19.78,21.763c0.461,0.511,0.43,1.299-0.089,1.767
			C-13286.968,1075.658-13287.269,1075.764-13287.572,1075.764z"/>
	</g>
	<g>
		<path style="fill:#141515;" d="M-13270.299,1075.764c-0.343,0-0.679-0.137-0.925-0.406l-19.777-21.761
			c-0.466-0.511-0.433-1.301,0.084-1.771c0.506-0.457,1.296-0.427,1.768,0.088l19.778,21.763c0.464,0.511,0.429,1.299-0.086,1.767
			C-13269.696,1075.658-13269.999,1075.764-13270.299,1075.764z"/>
	</g>
	<g>
		<path style="fill:#141515;" d="M-13253.025,1075.764c-0.343,0-0.679-0.137-0.927-0.406l-19.78-21.761
			c-0.461-0.511-0.43-1.301,0.086-1.771c0.509-0.457,1.296-0.427,1.771,0.088l19.776,21.763c0.461,0.511,0.431,1.299-0.084,1.767
			C-13252.427,1075.658-13252.726,1075.764-13253.025,1075.764z"/>
	</g>
	<g>
		<path style="fill:#141515;" d="M-13235.755,1075.764c-0.334,0-0.671-0.13-0.919-0.402l-20.029-21.762
			c-0.467-0.506-0.436-1.297,0.068-1.765c0.512-0.467,1.308-0.431,1.773,0.074l20.022,21.761c0.474,0.508,0.44,1.297-0.067,1.764
			C-13235.146,1075.658-13235.455,1075.764-13235.755,1075.764z"/>
	</g>
	<g>
		<path style="fill:#141515;" d="M-13218.731,1075.764c-0.344,0-0.68-0.137-0.93-0.406l-19.775-21.761
			c-0.466-0.511-0.43-1.301,0.084-1.771c0.517-0.457,1.307-0.427,1.768,0.088l19.78,21.763c0.463,0.511,0.429,1.299-0.087,1.767
			C-13218.132,1075.658-13218.432,1075.764-13218.731,1075.764z"/>
	</g>
	<g>
		<path style="fill:#141515;" d="M-13201.462,1075.764c-0.342,0-0.676-0.137-0.926-0.406l-19.778-21.761
			c-0.465-0.511-0.429-1.301,0.086-1.771c0.513-0.457,1.305-0.427,1.769,0.088l19.777,21.763c0.464,0.511,0.432,1.299-0.086,1.767
			C-13200.858,1075.658-13201.162,1075.764-13201.462,1075.764z"/>
	</g>
	<g>
		<path style="fill:#141515;" d="M-13184.188,1075.764c-0.345,0-0.681-0.137-0.928-0.406l-19.778-21.761
			c-0.463-0.511-0.429-1.301,0.088-1.771c0.513-0.457,1.295-0.427,1.767,0.088l19.776,21.763c0.466,0.511,0.43,1.299-0.083,1.767
			C-13183.59,1075.658-13183.89,1075.764-13184.188,1075.764z"/>
	</g>
</g>
</svg>
