<?xml version="1.0" encoding="utf-8"?>
<!-- Generator: Adobe Illustrator 27.5.0, SVG Export Plug-In . SVG Version: 6.00 Build 0)  -->
<svg version="1.1" id="Layer_1" xmlns="http://www.w3.org/2000/svg" xmlns:xlink="http://www.w3.org/1999/xlink" x="0px" y="0px"
	 viewBox="0 0 3000 3000" style="enable-background:new 0 0 3000 3000;" xml:space="preserve"
	 fill="none" stroke="#FFFFFF" stroke-width="3">
<g>
	<g>
		<path d="M734.991,1570.166l0.407-4.062c2.316-22.724,1.02-15.218,3.119-67.58c0.221-6.587-4.923-12.091-11.498-12.313
			c-6.203-0.209-12.103,4.923-12.313,11.498c-2.09,52.011-0.762,43.502-3.014,65.985l-0.419,4.12
			c-0.652,6.552,4.143,12.382,10.683,13.034c0.407,0.035,0.803,0.058,1.187,0.058
			C729.196,1580.907,734.386,1576.311,734.991,1570.166z"/>
		<path d="M807.668,1649.581c-26.266-5.528-45.422-13.383-60.271-24.707c-5.237-4.015-12.732-2.968-16.7,2.246
			c-3.992,5.237-2.991,12.708,2.246,16.7c17.771,13.558,39.952,22.798,69.814,29.083c6.389,1.35,12.759-2.728,14.116-9.205
			C818.235,1657.25,814.104,1650.931,807.668,1649.581z"/>
		<path d="M947.169,1668.492c-23.392-2.56-46.783-5.225-70.128-8.449c-6.564-1.059-12.534,3.654-13.43,10.171
			c-0.908,6.517,3.643,12.534,10.171,13.43c15.513,2.154,68.468,8.612,72.107,8.612c6.005,0,11.172-4.515,11.835-10.625
			C958.434,1675.091,953.721,1669.214,947.169,1668.492z"/>
		<path d="M1307.714,912.511c-23.624-1.757-47.249-3.433-70.873-5.062c-6.331-0.175-12.254,4.515-12.708,11.079
			c-0.442,6.564,4.515,12.254,11.079,12.708c23.578,1.606,47.156,3.282,70.734,5.039c0.302,0.023,0.605,0.035,0.896,0.035
			c6.18,0,11.405-4.771,11.87-11.032C1319.201,918.714,1314.278,913,1307.714,912.511z"/>
		<path d="M1449.379,923.998c-23.589-2.083-47.202-4.073-70.815-5.993c-6.692-0.489-12.301,4.364-12.848,10.916
			c-0.524,6.564,4.364,12.313,10.916,12.848c23.566,1.897,47.109,3.887,70.652,5.97c0.361,0.035,0.71,0.047,1.059,0.047
			c6.11,0,11.312-4.667,11.859-10.87C1460.784,930.363,1455.943,924.58,1449.379,923.998z"/>
		<path d="M717.081,1426.79c-0.221,6.575,4.923,12.08,11.51,12.301c0.128,0.012,0.268,0.012,0.407,0.012
			c6.389,0,11.684-5.074,11.894-11.521l2.374-70.943c0.221-6.575-4.934-12.091-11.51-12.301c-6.052-0.326-12.091,4.923-12.301,11.51
			L717.081,1426.79z"/>
		<path d="M1165.968,902.747c-23.636-1.513-47.272-2.968-70.931-4.318c-6.214-0.244-12.185,4.643-12.569,11.219
			c-0.384,6.564,4.643,12.196,11.219,12.569c23.589,1.35,47.179,2.805,70.768,4.318c0.256,0.012,0.512,0.023,0.768,0.023
			c6.238,0,11.475-4.841,11.882-11.161C1177.524,908.834,1172.543,903.166,1165.968,902.747z"/>
		<path d="M1024.047,894.682c-23.706-1.129-47.388-2.118-71.071-2.944c-6.377-0.396-12.091,4.911-12.324,11.486
			c-0.233,6.575,4.911,12.103,11.486,12.324c23.589,0.826,47.179,1.815,70.768,2.944c0.198,0.012,0.384,0.012,0.582,0.012
			c6.319,0,11.591-4.969,11.894-11.347C1035.696,900.583,1030.622,894.997,1024.047,894.682z"/>
		<path d="M733.315,1297.193c0.128,0.012,0.268,0.012,0.407,0.012c6.389,0,11.684-5.074,11.894-11.521l2.374-70.931
			c0.221-6.575-4.934-12.091-11.51-12.301c-5.877-0.442-12.08,4.923-12.301,11.51l-2.374,70.932
			C721.585,1291.468,726.728,1296.972,733.315,1297.193z"/>
		<path d="M1228.695,1717.021c6.215,0,11.452-4.818,11.882-11.102c0.442-6.564-4.515-12.255-11.079-12.708l-70.71-5.12
			c-6.389-0.431-11.428,4.469-11.94,11.044c-0.489,6.564,5.272,12.348,11.835,12.848l69.186,5.016
			C1228.148,1717.01,1228.427,1717.021,1228.695,1717.021z"/>
		<path d="M1298.835,1721.513c58.947,3.45,74.031,3.817,71.583,3.817c6.319,0,11.579-4.969,11.894-11.347
			c0.314-6.575-4.76-12.161-11.335-12.475c-23.589-1.141-47.179-2.397-70.745-3.782c-6.599-0.303-12.208,4.632-12.592,11.195
			C1287.255,1715.497,1292.26,1721.129,1298.835,1721.513z"/>
		<path d="M1590.73,936.601l-21.052-1.711c-14.314-1.14-28.477-2.269-42.408-3.643l-7.111-0.675
			c-6.389-0.64-12.382,4.166-13.011,10.707c-0.64,6.54,4.155,12.371,10.707,13.011l7.146,0.687
			c14.012,1.385,28.326,2.525,42.792,3.677l20.936,1.687c0.349,0.035,0.675,0.047,1.012,0.047c6.133,0,11.347-4.702,11.859-10.916
			C1602.158,942.909,1597.282,937.148,1590.73,936.601z"/>
		<path d="M1733.361,962.006c-5.249-2.002-10.602-3.666-15.746-5.19c-16.7-4.958-34.855-8.949-55.488-12.208
			c-6.47-0.896-12.604,3.421-13.639,9.915c-1.024,6.505,3.422,12.604,9.915,13.628c52.129,8.234,64.368,16.909,70.734,16.909
			c4.806,0,9.333-2.933,11.137-7.692C1742.613,971.212,1739.517,964.334,1733.361,962.006z"/>
		<path d="M2142.727,768.331c26.103,1.85,48.739-18.243,50.554-44.881c1.815-26.639-17.881-49.733-43.99-51.584
			c-26.103-1.85-48.739,18.243-50.554,44.881C2096.921,743.386,2116.617,766.479,2142.727,768.331z"/>
		<path d="M2000.91,758.278c26.109,1.85,48.744-18.243,50.554-44.881c1.816-26.639-17.875-49.732-43.984-51.584
			c-26.109-1.85-48.744,18.243-50.554,44.882C1955.11,733.332,1974.807,756.427,2000.91,758.278z"/>
		<path d="M1865.623,748.687c26.103,1.85,48.738-18.243,50.554-44.881c1.815-26.639-17.881-49.732-43.99-51.582
			c-26.103-1.852-48.738,18.242-50.554,44.881C1819.817,723.742,1839.514,746.836,1865.623,748.687z"/>
		<path d="M573.321,735.608c448.806,52.451,851.305,80.474,1277.429,110.139c97.477,6.785,196.653,13.698,298.517,21.029
			c0.291,0.023,0.582,0.035,0.873,0.035c6.191,0,11.428-4.783,11.871-11.056c0.477-6.575-4.457-12.278-11.021-12.743
			c-101.887-7.343-201.087-14.244-298.575-21.041c-425.844-29.641-828.076-57.653-1276.323-110.034
			c-6.761-0.791-12.452,3.934-13.22,10.451C562.102,728.928,566.781,734.84,573.321,735.608z"/>
		<path d="M2631.723,1233.994c-17.952-14.87-95.813-51.302-130.964-54.375c-48.03-13.618-93.688-19.103-147.868-28.674
			c33.333-318.307,29.033-289.254,35.489-335.474c7.082-49.523,5.062-46.71,5.72-53.865c1.67-24.072,3.096-49.098-8.1-73.409
			c-17.166-37.658-50.531-63.875-88.667-72.216c-0.71-1.193-1.903-2.384-3.095-3.576c-58.923-56.862-268.449-71.457-348.931-77.937
			c-54.469-4.299-804.822-77.036-1320.395-86.516c-63.678-1.664-132.752-6.074-187.098,27.408
			c-26.929,16.684-43.612,45.046-44.805,76.03l-37.182,1114.711c-0.82,36.067-12.984,84.62,0.477,127.034
			c-2.386,2.384-4.288,5.72-4.527,10.487c-0.239,10.726,2.618,21.213,8.344,30.984c29.548,50.291,87.23,85.803,171.364,105.823
			c122.937,29.105,322.914,49.901,450.307,62.365c15.863,90.651,42.26,173.068,23.269,255.341
			c-11.917,51.005-42.902,99.387-86.991,137.76c-51.716-49.712-138.909-117.756-210.455-126.796
			c-79.587-9.846-148.96,43.825-130.609,124.174c8.344,36.944,34.081,70.549,67.213,87.71
			c84.123,43.382,198.755,3.832,272.42-53.151c56.165,58.247,110.725,125.366,194.482,125.366
			c64.356,0,122.51-41.471,154.443-86.994c40.999-58.155,54.103-130.609,60.778-187.334c7.058-58.181,9.421-116.883,7.925-175.344
			c29.061-3.544,57.807-26.438,67.673-66.55c107.893,7.193,209.431,12.842,308.13,17.141
			c116.201,4.599,226.704,13.981,354.174,7.388c89.13-5.044,104.152-13.433,113.444-15.015
			c47.557-13.852,77.71-37.843,88.231-70.089c24.109,2.646,47.198,4.136,68.051,4.885c37.172,3.937,99.26,9.51,136.399,3.475
			c2.68-0.893,16.564-2.521,29.321-9.296c12.15-6.197,22.164-16.207,25.021-30.984c0-0.477,0-1.193,0.239-1.907
			c24.704-131.94,105.284-557.001,115.358-609.194C2646.502,1300.013,2662.469,1260.449,2631.723,1233.994z M655.18,2459.771
			c-26.93-13.824-48.145-41.471-55.058-71.74c-12.901-57.474,30.822-96.051,88.9-96.051c41.582,0,81.639,21.139,116.074,44.094
			c33.604,22.165,65.305,47.191,94.381,75.076C832.775,2461.18,729.675,2498.056,655.18,2459.771z M997.245,1925.744
			c-2.607-74.769,16.549-151.112,53.923-222.849c11.106,1.019,34.458,3.257,35.99,3.257c6.121,0,11.323-4.678,11.859-10.893
			c0.57-6.552-4.283-12.324-10.846-12.894c-8.164-0.707-16.328-1.511-24.486-2.249c48.587-83.371,121.683-159.318,213.202-217.464
			c37.442,34.605,29.067,28.837,36.1,32.86l24.323,23.059c3.573,3.336,9.293,3.336,12.865,0
			c125.922-116.352,120.33-114.804,126.647-115.467l5.924,5.708c-0.25,2.494-33.558,284.447-34.895,296.262
			c-0.954-0.048-1.914-0.073-2.869-0.121l-3.084-0.151c-6.564-0.535-12.173,4.748-12.487,11.323
			c-0.326,6.575,4.748,12.161,11.323,12.487l3.072,0.151c0.198,0.01,0.396,0.015,0.594,0.025
			c-6.368,33.849-12.493,66.477,13.505,89.85c35.429,32.3,86.73,41.229,134.426,51.482c85.607,19.646,299.781,58.778,519.557,86.953
			c-97.148,36.795-361.969,16.151-473.797,11.718c-131.086-5.481-267.177-13.585-416.377-24.787
			C1142.361,1938.211,1068.043,1932.14,997.245,1925.744z M1369.883,1296.716c7.821-8.391,7.471-21.192-0.791-29.152l-66.032-63.588
			c86.399-24.74,198.817-31.717,286.705-57.292c-23.817,85.536-29.507,197.677-52.719,281.328l-66.521-64.054
			c-8.065-7.786-20.843-7.902-29.071-0.233l-118.11,110.08l-62.971-59.608L1369.883,1296.716z M2338.088,1172.741
			c44.18,7.36,193.581,26.927,223.565,60.538c14.861,16.609,1.972,55.074-2.857,80.559
			c-5.522,28.965-95.677,503.873-115.358,609.194h0.239c-2.276,9.089-5.114,16.079-16.764,22.957
			c-20.994-89.093-45.8-177.215-83.198-260.842c-18.37-41.126-46.556-86.29-92.321-91.757c-18.37-1.994-36.81,2.738-53.667,9.843
			c-50.036,21.105-89.156,60.296-127.653,98.043c-26.057,25.798-52.567,51.06-79.828,76.011
			c-21.925-95.254-47.714-189.824-87.678-279.069c-18.347-41.375-46.562-86.292-92.327-91.758
			c-18.097-2.22-36.804,2.739-53.661,9.844c-50.019,20.858-89.168,60.295-127.659,98.043
			c-39.038,38.202-79.049,75.825-120.001,112.625c-10.166,9.143-20.36,18.534-30.758,27.408c-0.14,0.113-0.314,0.191-0.448,0.304
			l2.124-17.896c7.861-66.496,15.728-133.708,23.834-201.397l0.669-5.782l19.383,18.667c3.008,2.905,6.721,4.668,10.66,5.433
			c7.413,5.361,15.315,9.923,23.869,12.905c2.857,0.716,5.714,1.669,8.338,0.716c4.288-1.43,4.766-5.72,5.72-9.296
			c1.431-5.243,2.618-10.487,4.05-15.73c3.101-12.871,5.726-25.741,8.344-38.849c4.766-25.741,8.577-51.482,12.633-77.46
			c7.384-48.145,14.297-96.527,27.407-143.719c3.34-11.201,9.298-23.118,5.481-34.797c-2.383-7.16-8.93-16.333-12.278-20.11
			c-0.978-2.678-2.857-5.014-5.534-6.437c-2.387-0.876-5.934-4.574-12.464-2.397c-18.539,6.252-39.248,11.321-60.673,15.944
			c1.199-10.378,2.368-20.785,3.718-31.093c1.193-10.724,8.1-20.497,18.114-25.74c32.935-16.468,74.682-6.926,185.428,5.958
			C1814.769,1089.797,2119.309,1132.637,2338.088,1172.741z M2404.352,1966.647l-0.006-0.012c0,0,0-0.001,0.006-0.001V1966.647z
			 M2364.546,698.207c16.046,35.203-0.556,109.852-3.812,145.626l-31.2,303.027c-18.289-3.276-36.484-6.465-54.569-9.579
			c38.95-373.758,35.732-351.236,40.01-379.727c5.237-35.274,10.963-76.506,0.471-110.112
			C2336.423,657.928,2354.06,675.566,2364.546,698.207z M379.659,1666.817l37.182-1114.711c0.716-22.88,13.348-43.854,33.604-56.486
			c47.178-29.362,110.948-25.952,173.989-23.832c528.244,9.832,1279.452,83.425,1318.969,86.516
			c90.57,7.15,183.997,14.538,268.131,39.565c81.982,24.111,95.511,45.447,79.84,156.35c-4.397,30.75-2.885,24.005-39.771,379.052
			c-161.457-27.36-356.609-55.795-478.377-70.642c0-2.45,2.823-17.053,3.579-34.798c0-6.673-5.004-12.156-11.678-12.156
			c-5.72-0.239-12.156,5.006-12.156,11.441c-0.227,9.534-3.026,30.685-3.578,32.889c-108.5-12.916-158.661-24.027-199.248-3.574
			c-17.16,9.057-28.599,25.741-30.747,44.092c-1.629,13.02-3.177,26.036-4.702,39.056c-78.692,15.005-157.502,23.348-223.425,43.007
			c-15.496,4.603-19.804,24.049-8.437,34.994l67.568,65.078l-109.522,117.505c-7.751,8.321-7.343,21.448,0.919,29.28l17.294,16.367
			c-95.731,62.078-171.655,143.051-221.197,231.935c-6.761-0.636-13.523-1.207-20.284-1.863
			c-6.727-0.605-12.382,4.155-13.011,10.707c-0.64,6.552,4.155,12.371,10.707,13.011c3.451,0.337,6.901,0.621,10.352,0.951
			c-35.867,71.874-54.301,148.061-52.305,223.005c-213.337-19.73-310.094-33.591-368.227-41.519
			c-68.877-9.057-147.053-19.305-202.111-61.73C357.1,1784.938,378.6,1715.478,379.659,1666.817z M537.204,1917.311
			c-62.686-15.015-109.161-38.611-138.238-70.549c58.869,39.804,135.136,50.052,203.065,58.87
			c125.671,17.538,245.798,30.348,372.532,42.054c0.85,10.283,1.996,20.559,3.456,30.835
			C855.553,1966.398,655.525,1945.414,537.204,1917.311z M1302.745,2276.011c-6.913,57.202-19.062,123.221-56.483,176.371
			c-31.701,45.284-92.24,86.04-155.636,75.314c-65.266-11.019-111.314-70.558-155.636-114.879
			c46.952-41.709,80.317-93.906,93.188-149.438c20.059-86.41-6.519-173.563-21.745-258.226
			c79.572,7.609,163.922,14.829,254.661,21.765c-6.282,34.355,12.225,65.792,49.309,74.75
			C1312.061,2159.826,1309.739,2218.135,1302.745,2276.011z M2063.05,2037.672c-113.847,6.833-247.504-3.219-351.788-7.388
			c-231.22-10.089-498.864-29.1-708.767-49.386c-1.548-10.371-2.787-20.696-3.747-30.993
			c177.345,15.984,422.645,33.715,638.388,42.72c106.363,4.217,237.903,14.405,354.174,7.388
			c54.392-2.735,118.099-7.131,163.392-37.478c17.941,2.318,50.874,6.7,86.462,11.002
			C2217.281,2028.193,2122.503,2034.563,2063.05,2037.672z"/>
		<path d="M2125.386,1461.804c46.568,3.787,87.445-30.191,91.309-75.892c3.858-45.701-30.764-85.819-77.332-89.607
			c-46.574-3.788-87.457,30.189-91.315,75.891S2078.813,1458.016,2125.386,1461.804z"/>
		<path d="M781.315,1144.143c62.442-20.543,113.81-75.953,114.893-142.49c0.5-30.572-7.768-61.503-22.81-89.026l7.914,0.176h0.337
			c6.424,0,11.719-5.121,11.905-11.591c0.175-6.575-5.016-12.057-11.591-12.243l-24.334-0.541
			c-28.285-37.041-70.367-63.982-120.88-68.019c-99.135-7.924-185.713,60.456-193.371,152.734
			C533.264,1094.952,668.214,1181.351,781.315,1144.143z M619.191,951.8c0.239-3.337,33.371-2.86,73.41-0.239h0.239
			c3.811-39.088,8.577-71.025,12.15-71.025c0.722-7.866,53.871-3.576,53.155,4.29c2.38,0,1.193,32.414-1.67,71.74
			c41.471,3.813,76.506,8.58,76.506,12.156c8.106,0.714,3.817,53.149-4.288,52.435c-0.239,2.383-35.512,0.953-77.46-2.146
			c-3.811,40.994-8.106,75.553-10.491,75.553c-0.471,5.72-53.626,1.43-53.149-4.29c-3.573-0.239-2.857-35.035,0-76.269
			c-39.801-3.813-72.689-7.627-72.689-10.01C608.944,1003.519,613.471,951.323,619.191,951.8z"/>
		<path d="M2401.14,584.633c5.47,0,10.392-3.782,11.626-9.345c6.447-29.222,10.823-59.154,13.011-88.958
			c0.489-6.564-4.446-12.278-11.009-12.755c-6.843-0.605-12.278,4.457-12.755,11.009c-2.106,28.663-6.319,57.455-12.522,85.56
			C2387.855,577.559,2393.479,584.633,2401.14,584.633z"/>
		<path d="M2481.079,577.557c4.446,0,8.717-2.49,10.765-6.773l46.97-98.059c2.84-5.935,0.326-13.046-5.609-15.897
			c-5.9-2.851-13.046-0.337-15.897,5.609l-46.97,98.059C2466.542,568.429,2472.381,577.557,2481.079,577.557z"/>
		<path d="M2517.284,616.636c4.887,0,1.475,0.098,81.266-36.752c5.958-2.793,8.531-9.88,5.749-15.85
			c-2.793-5.958-9.822-8.519-15.85-5.749l-76.227,35.634C2500.74,599.302,2504.546,616.636,2517.284,616.636z"/>
	</g>
</g>
</svg>
